<mxfile host="app.diagrams.net" agent="Mozilla/5.0 (Windows NT 10.0; Win64; x64) AppleWebKit/537.36 (KHTML, like Gecko) Chrome/131.0.0.0 Safari/537.36" version="25.0.3">
  <diagram name="第 1 页" id="59KDBDx_PkULZ0soCJn3">
    <mxGraphModel dx="1260" dy="652" grid="1" gridSize="10" guides="1" tooltips="1" connect="1" arrows="1" fold="1" page="1" pageScale="1" pageWidth="827" pageHeight="1169" math="0" shadow="0">
      <root>
        <mxCell id="0" />
        <mxCell id="1" parent="0" />
        <mxCell id="pPb6ElMtTMh3hKjmj9ho-1" value="&lt;div style=&quot;&quot;&gt;&amp;nbsp;&lt;font face=&quot;ui-monospace, SFMono-Regular, SF Mono, Menlo, Consolas, Liberation Mono, monospace&quot;&gt;&lt;span style=&quot;font-size: 13.6px; white-space: pre;&quot;&gt;姚明  去  哈尔滨工业大学  体育馆  打球  了  &lt;br/&gt;B-PER I-PER O B-ORG I-ORG I-ORG I-ORG I-ORG I-ORG I-ORG B-LOC I-LOC I-LOC O O O&lt;/span&gt;&lt;/font&gt;&amp;nbsp;&lt;/div&gt;" style="text;html=1;align=center;verticalAlign=middle;whiteSpace=wrap;rounded=0;" parent="1" vertex="1">
          <mxGeometry x="70" y="140" width="660" height="30" as="geometry" />
        </mxCell>
      </root>
    </mxGraphModel>
  </diagram>
</mxfile>
